<mxfile host="app.diagrams.net" modified="2020-09-17T06:52:33.801Z" agent="5.0 (Windows)" etag="GzxFnA7s2UBnUnH4pviB" version="13.7.2" type="github">
  <diagram id="lM9zyvNwDC7qnWDtYcqd" name="Page-1">
    <mxGraphModel dx="438" dy="742" grid="1" gridSize="10" guides="1" tooltips="1" connect="1" arrows="1" fold="1" page="1" pageScale="1" pageWidth="850" pageHeight="1100" math="0" shadow="0">
      <root>
        <mxCell id="0" />
        <mxCell id="1" parent="0" />
        <mxCell id="E1nkLzYPk-gxD_jD_rBp-1" value="Circle" style="swimlane;fontStyle=1;align=center;verticalAlign=top;childLayout=stackLayout;horizontal=1;startSize=26;horizontalStack=0;resizeParent=1;resizeParentMax=0;resizeLast=0;collapsible=1;marginBottom=0;" vertex="1" parent="1">
          <mxGeometry x="150" y="370" width="270" height="230" as="geometry" />
        </mxCell>
        <mxCell id="E1nkLzYPk-gxD_jD_rBp-2" value="- radius: float&#xa;- centerX: float&#xa;- centerY: float&#xa;&#xa;" style="text;strokeColor=none;fillColor=none;align=left;verticalAlign=top;spacingLeft=4;spacingRight=4;overflow=hidden;rotatable=0;points=[[0,0.5],[1,0.5]];portConstraint=eastwest;" vertex="1" parent="E1nkLzYPk-gxD_jD_rBp-1">
          <mxGeometry y="26" width="270" height="54" as="geometry" />
        </mxCell>
        <mxCell id="E1nkLzYPk-gxD_jD_rBp-3" value="" style="line;strokeWidth=1;fillColor=none;align=left;verticalAlign=middle;spacingTop=-1;spacingLeft=3;spacingRight=3;rotatable=0;labelPosition=right;points=[];portConstraint=eastwest;" vertex="1" parent="E1nkLzYPk-gxD_jD_rBp-1">
          <mxGeometry y="80" width="270" height="8" as="geometry" />
        </mxCell>
        <mxCell id="E1nkLzYPk-gxD_jD_rBp-4" value="+ Circle(radius:float,centerX:float,centerY;float)&#xa;+ setRadius(radius:float):void&#xa;+ setCenterX(centerX:float):void&#xa;+ setCenterY(centerY:float):void&#xa;+ getRadius():float&#xa;+ getCenterX():float&#xa;+ getCenterY():float&#xa;+ toString():String&#xa;" style="text;strokeColor=none;fillColor=none;align=left;verticalAlign=top;spacingLeft=4;spacingRight=4;overflow=hidden;rotatable=0;points=[[0,0.5],[1,0.5]];portConstraint=eastwest;" vertex="1" parent="E1nkLzYPk-gxD_jD_rBp-1">
          <mxGeometry y="88" width="270" height="142" as="geometry" />
        </mxCell>
      </root>
    </mxGraphModel>
  </diagram>
</mxfile>
